<svg width="1600" height="600" viewBox="0 0 1600 600" xmlns="http://www.w3.org/2000/svg">
  <!-- Airplane tail logo -->
  <g transform="translate(620, 65)">
    <path d="M 0 30 Q 50 10 100 0 L 130 30 Q 80 40 30 60 Z" fill="#ff8c00"/>
    <path d="M 0 60 Q 50 40 100 30 L 130 60 Q 80 70 30 90 Z" fill="#ff8c00"/>
    <path d="M 0 90 Q 50 70 100 60 L 130 90 Q 80 100 30 120 Z" fill="#ff8c00"/>
    <path d="M 100 0 L 130 30 L 160 20 L 130 -10 Z" fill="#333"/>
    <path d="M 100 30 L 130 60 L 160 50 L 130 20 Z" fill="#333"/>
    <path d="M 100 60 L 130 90 L 160 80 L 130 50 Z" fill="#333"/>
    <path d="M 130 90 Q 140 100 150 130 L 160 80 Z" fill="#333"/>
  </g>
  
  <!-- CAR text -->
  <text x="50" y="450" font-family="Arial Black, sans-serif" font-size="180" font-weight="900" fill="#ff8c00" letter-spacing="-5">CAR</text>
  
  <!-- BREEZE text -->
  <text x="580" y="450" font-family="Arial Black, sans-serif" font-size="180" font-weight="900" fill="#333" letter-spacing="5">BREEZE</text>
  
  <!-- RENT A CAR text -->
  <text x="470" y="540" font-family="Arial, sans-serif" font-size="60" font-weight="bold" fill="#ff8c00" letter-spacing="15">RENT A CAR</text>
</svg>
